<svg width="38" height="38" viewBox="0 0 38 38" fill="none" xmlns="http://www.w3.org/2000/svg">
<path d="M23.5 10.375H23.5188M18.8125 34.75H6.625C5.13316 34.75 3.70242 34.1574 2.64752 33.1025C1.59263 32.0476 1 30.6168 1 29.125V6.625C1 5.13316 1.59263 3.70242 2.64752 2.64752C3.70242 1.59263 5.13316 1 6.625 1H29.125C30.6168 1 32.0476 1.59263 33.1025 2.64752C34.1574 3.70242 34.75 5.13316 34.75 6.625V18.8125" stroke="black" stroke-width="2" stroke-linecap="round" stroke-linejoin="round"/>
<path d="M1 25.3749L10.375 15.9999C12.115 14.3255 14.26 14.3255 16 15.9999L23.5 23.4999" stroke="black" stroke-width="2" stroke-linecap="round" stroke-linejoin="round"/>
<path d="M21.625 21.6251L23.5 19.7501C24.7563 18.5426 26.2187 18.2051 27.5912 18.7376M25.375 31.0001H36.625M31 25.3751V36.6251" stroke="black" stroke-width="2" stroke-linecap="round" stroke-linejoin="round"/>
</svg>
